<?xml version="1.0" encoding="UTF-8"?>
<svg id="_圖層_1" xmlns="http://www.w3.org/2000/svg" version="1.1" viewBox="0 0 197.1 90.4">
  <!-- Generator: Adobe Illustrator 30.5.1, SVG Export Plug-In . SVG Version: 2.1.4 Build 3)  -->
  <defs>
    <style>
      .st0 {
        fill: #2a2b2e;
      }
    </style>
  </defs>
  <g>
    <path class="st0" d="M40.2,32.3c2.2.8,1.6-1.3,2.1-2.2.5-.8.6-2,1.3-2.6,1.3-1,.9-1.9.5-3.2-.3-1-.4-1.4-1.5-1.3-.9.1-.7-.7-.7-1.2,0-1.3,0-2.7-.7-3.9-.6-1-1.1.8-1.4-.1-.3-.9-.7-1.9-.7-2.9s-.3-1.8-1.1-2.4c0,.7-.3,1.5-.4,2.2v2.4c-.2,1-.3,2.3-.9,2.7-1.8,1.2-2,4.4-5,3.8-.1,0-.2.1-.3.2-.1,1.6-1.3,1.1-2.3,1.2-.3,0-.6.3-.9.5-1.7,1-3.4,2-5.1,3-.6.3-1.2-.1-1.1-.8.1-.5.3-1,.6-1.5,1.2-2.2,2.6-4.3,3.6-6.6,1.2-2.7,2.3-5,3.9-6.5,1.1-1.1,2-2.1,1.9-3.8,0-1.3.8-2.6,1.5-3,.4-.2.9-.2,1.3-.3.8-.2,1.6-.7,1.4-1.6,0-.5-.9-.9-1.5-1.1-.5-.2-1.2,0-1.7,0-1.8.3-3.5.9-5.3.8-.6,0-1.8.8-1.8,1.1.1,1.8-1.5,2.2-2.1,3.4-.9,1.5-1.4,3.2-2.3,4.7-1,1.6-1.8,3.2-2.5,5-.6,1.7-1.4,3.4-1.9,5.2-.5,1.8-.6,4-2.3,5.4-.2.2-.2.6-.3.9-.4,2.1-1.1,2.8-3.1,3.2-1.1.2-2.1.6-3.2.7h-3.5c-1.3,0-2.6.4-3.9.8-.9.3-1.1,1.3-.5,2.2.6.8,1.1,1.7,1.6,2.5,1.3,1.9,2.1,4.2,4.5,5.1.3,0,.7.4.7.7.4,2,2.4,2.2,3.5,3.4,1.3,1.3,1.4,1.3.1,3-.3.4-.5,1.5-.3,1.8,1.3,1.2,1.6,1.8-.6,1.8.1.4.3.9.1,1.2-.2.4-1.1,1.4-.9,1.6,1.7,2.1-.9,3.9-.2,5.8.1.3-.5,1-.9,1.3-.3.2-.8,0-1.2,0h-.7v1.4c0,.9.6,2,1.7,3.1.2.2.2.6.4.9.7,1.1,1.5,2,3.1,1.3.3-.2.9.5,1.5.6.3,0,1-.2,1.1-.4.2-2.5,2.8-5,.1-7.6-.2-.2,0-.9,0-1.4-.2-3.1,1.2-6.1.8-9.2,1.4-.7-.7-1.4,0-2.2.6-.7.8-1.8,1.3-2.6,1.7-2.7,3.6-5.1,7.2-5.4.8,0,1.8-.3,2.4-.8,3.1-2.7,7.2-3.8,10.2-6.7,1.4-1.3,3.7-1.6,4.4-3.7h0Z"/>
    <path class="st0" d="M53.2,65.5c-.5-.9-.9-2-1.4-2.9-.7-1.2-1.3-2.8-2.4-3.5-2.8-1.7-5.8-3.3-9.1-3h-2.3c-1.4-.3-1,1-1.4,1.5-.6.9.5.5.8.7,1.4.9,2.8,1.8,3.5,3.4.4,1,.3,1.6-.4,2.4-1,1.2-2.4,2-3.1,3.6-.5,1.1-.9,1.3.6,1.8s2.4,2.4,4.3,2.1c.6.9,1.5.3,2.2.6.8.3,1.5.7,2.2,0,1.2,1,2.6.7,3.9.7s3.1-1.8,3.1-2.1c.2-1.8.4-3.6-.5-5.3Z"/>
  </g>
  <g>
    <path class="st0" d="M195.9,70.7c-1.3-3.3-3.9-5.5-6.6-7.5-1.7-1.2-3.7-1.9-5.4-3.1-1.7-1.2-3.3-2.6-5.3-3.3-2.1-.7-4.1-1.4-6.2-2.1-.3,0-.6-.4-.6-.6,0-.3.3-.8.4-.8,1.3.4,1-1.6,1.4-1.3,1,.9,1.5-.4,2.4-.2,1.4.3,2.5-.4,3-1.8.2-.4.6-.7,1-.9,3.1-2.3,6.8-3.8,9.6-6.7.8-.8,2.6-1.2,2.5-2.4-.1-1-1.4-2-2.3-2.8-.4-.4-1.1-.4-1.4-.8-1.5-1.8-3.9-.8-5.6-1.9,0,0-.4.2-.4.3,0,.3.1.7.3.9.2.3.6.4,1,.5-1.2,1.5-2.3,3.3-3.8,4.3-1.1.7-1.9,1.6-2.9,2.4-.7.6-1.2,1.5-2,1.9-2.4,1.4-4.5,3-6.4,5-.5.5-1,1-1.5,1.4h-.6c-.1,0-.1-.4,0-.5.9-1,.2-2.2.5-3.3.3-1.2.9-2.3.7-3.6-.1-1,.4-1.1,1.3-.7,2.6,1,3,.7,3.9-1.5.1-.3.3-.6.5-.8-.4,0-.8,0-1.3-.2.4-.4.8-.8,1.3-1.2,0-.4-.1-.8,0-1,1-1.3,2.2-2.6,3.2-4,1-1.3,2.8-1.8,3.5-3.4,2.2-.1,2.6-2.2,3.3-3.5.8-1.4,2.1-2.5,2.7-4.1.6-1.8,1.1-3.6,1.4-5.4.6-2.7.4-3.1-1.3-4.8-.4-.4-.8-.9-1.3-1.2-2.1-1.5-4.4-2.8-6.9-1.9-2.2.7-4.7,1.4-6.4,3.3-.6.6-1.4,1-2.2,1.5-.7.5-1.5,1-2.2,1.5-.7.5-2,.9-2.1,1.5-.3,1.3,1.3,1.1,2,1.7,1.8,1.4,3.6,2.1,6.1,1.1,1.3-.5,2-1.3,3-2,.2-.2.7-.2.9-.1s.4.7.3.9c-1.4,2.8-1.2,6.3-3.5,8.7-.3,3.1-3.2,4.7-4.2,7.4-.1.2-.3.2-.5.4-.1-.3-.3-.7-.3-.9.1-.5.5-1,.7-1.5.5-2.1.8-4.4,1.6-6.4.4-.9.4-1.7.5-2.6.2-1.3-.9-2.1-1.7-2.4-.9-.4-2.2,0-3.3.2-.3.1-.7.8-.7,1.1.4,1.9-.8,3.5-.7,5.3.1,1.2-.9,1.1-1.4.9-1.4-.6-2.7-1.2-4,0-.1.1-.7-.1-.9-.3-.1-.2,0-.7.2-.9.8-.9,1.6-1.7,2.5-2.5s1.2-1.6.4-2.7c-.2-.2-.3-.6-.3-.9,0-2.1-1-3.5-2.9-4.4-1.6-.8-1.6-1.2-.7-2.6,1-1.6,2-3.2,2.7-4.8.8-1.9-1.3-6.1-3.2-6-2.5,0-4.7-.9-7.1-.8-1.8,0-2.3.5-2.2,2.3.1,1.2.6,2.4.6,3.6.1,2.7,0,5.4,0,8.1s-.3,1.8-1.5,2.3c-2,.7-3.9,2.2-5.9,2.6-1.4.3-.7,1.7-1.7,1.8.2.5.4,1,.6,1.4.3.8.6,2.2,1,2.3,2.1.3,2.4,3.2,4.8,3.1.6,0,1.5,1.1,1.9,1.8.2.3.5,1.2-.6,1.7-1.8.7-3.4,2.1-5.3,2.6-1.4.4-3,1.9-4.7.3-.3-.3-1-.2-1.5.8-.9,1.7-.6,3.1.1,4.7.5,1.1,1.6.9,2.4,1.4.8-1.5,2.6,0,3.7-1.3.7-.8,2.2-.9,3.3-1.3h.5c.1.2.2.5,0,.7-.8.9-1.6,1.7-2.4,2.5-1.4,1.3-1.8,3-1.8,4.9s.2,2.7,2,3c.1,0,.3.7.1.9-.6.8-1.4,1.6-2.1,2.4-1.4,1.8-3.1,3.4-2.8,6,.1,1,.6,1.6,1.8,1.7,2.1,0,4.2.2,5.6-2,.3-.4,1-.5,1.4-.9.8-.6,1.2-.9,1.2.5,0,2-1.1,3.9-.8,6,.1,1.1.6,2.5-.5,3.6-.1,0,.2.8.3,1.2.8,1.8,3.7,3.6,5.5,3.4.5,0,1.1-.4,1.4-.8.2-.2-.1-1-.4-1.3-1.4-1.4-1.3-3.2-1.4-5-.3-3,.6-5.9.9-8.8.2-1.6.8-3.5,2.5-4.4,1.7-.8,3.5-1.4,4.8-2.8h.7c.1,0,.2.3.1.5-.1.3-.5.6-.5.8,0,4.4,0,8.9-.1,13.3,0,.6,1.3.8.3,1.7-.2.2.7,1.7.4,2-1.6,1.8.2,2.4,1,3.3.8.8,1.7,1.4,2.7,2,.3.2.9.2,1.2,0s.9-.3.4-1.2c-1.5-2.9-1.8-6.1-2.3-9.2-.5-2.8-.1-5.8-.1-8.8s0-.6.1-.6c.4-.3.5-1.3,1.5-.4,1.2,1.1,2.7,1.9,4.1,2.8.8.6,1.8,1,2.4,1.8.6.7.5,2.1,2,2,.2,2.1,3.1,1.9,3.6,4.1.2.8,1.2,1.5,1.9,2,3.1,2.1,6.5,3.7,9.5,5.9,1.8,0,2.6,1,3.2,2.5.3.7,1.1,1.2,1.7,1.7.6.4,1.6-.2,1.7-.9.3-3.5,0-5-1-7.5h0ZM174.8,49.8c.1.2.2.3.3.5-.1,0-.2.2-.3.2-.1-.2-.2-.3-.2-.5s.2,0,.2-.2ZM151.9,44.3c-1,1.1-2,2.2-3,3.2h-.2c-.1,0-.2-.2-.2-.2,0-.2-.1-.5,0-.7.9-1,1.9-2,2.9-2.9h.5c-.1.2,0,.5,0,.6ZM163.9,37.5c.3,4-1,7.8-1.4,11.6-.1.8-.4.5-.8.2-.7-.5-1.6-.6-2-1.6-.8-1.7-.9-1.6.3-2.8,1.2-1.3,2.8-2.3,3-4.4,0-.4.3-.8.3-1.3.2-2.3-.3-2.8-2.6-2.9h-.7c-2.8-.3-4.4,1.8-6.5,3.1-.2,0-.5,0-.7.2,0-.3,0-.8.1-.9,2.8-1.9,5.4-4.3,9-4.3s1.8-1.7,2.7-.4c.6.8-.3,1.7-.6,2.5-.2.3-.1.7-.1,1ZM169.2,54.1s-.2-.4-.3-.6c.2,0,.4-.3.6-.2.2,0,.4.3.6.4-.2,0-.4.2-.9.4h0Z"/>
    <path class="st0" d="M173.8,40.1c-.2-.3-.5-.6-.7-.9v1.4c.2,0,.4-.3.7-.5Z"/>
    <path class="st0" d="M176,36c0,.2.1.3.2.5.1,0,.2-.2.3-.2-.1,0-.2-.3-.3-.5,0,0-.2,0-.2.2Z"/>
  </g>
  <g>
    <path class="st0" d="M118,27.7c-3.1-1.6-6.2-3.6-9.9-3.2-.9.1-1.7.7-2.5.6-2.5,0-4.7.8-6.9,2.1-1.8,1.1-3.6,2-5.6,2.7-2,.8-4.3.8-6.4,1.5-.7.2-1.6.2-2.4.3.7.9,1.6.3,2.4.4.9.2,1.7,0,2.6.4,1.2.3,2.5,1.2,3.9.3h.6c0,.2-.2.6-.4.7-2.1,1.1-3.8,2.7-5,4.6-.6,1-2.2.8-2.2,2.2s1.5,1.5,1.5,2.9,1.3,2.3,3,2.1c1.5,0,2.8-.7,3.1-2.1.3-1.4.8-2.5,1.8-3.5s1-1.4,1.5-2.1c1,1.1-1,1.7-.4,2.8,0,.2-.2.6-.5.8-1.1,1.1-1.4,2.4-1.7,3.9-.3,1.4-.7,2.9-2.9,3.1-2.3.3-4.6,1.3-6.8,2.3-4,1.9-4,2.1-3.7,6.4,0,1.1.7,1.7,1.7,1.7s2.2.3,3.2-.9c.7-.8,1.7-1.4,2.7-1.9,2-1.1,4.3-1.6,6-3.3.4-.4,1.1-.4,1.2.4,0,0,1.4,4.9,1.4,5,0,2,1.1,3.9.8,6,1.6,3.7.3,7.2-1,10.6-.6,1.6-1.5,3.2-2.6,4.5-2.6,3-5.5,5.6-9.9,5.5-2.2,0-4,.7-5.2,2.7-.3.5-.4.8.3.8,1.6,0,3,.3,4.5,1.1,1.4.8,3.2.8,4.8,1.2,2.4.4,3.9-1.2,5.5-2.4,3.1-2.2,6.8-3.8,8.3-7.8.6-1.5,2.1-5.7,2.3-7.5.5-3.8-1-7.5-.7-11.3-1.5-1.7-.6-3.8-1.3-5.8-1-2.9,0-3.8,3.2-3.5h.3c.9.9,1.5.3,1.9-.5.3-.6.5-1.2.7-1.8,0-.4,1.1-.6.3-1.3-.4-.3-.5-1.1-.8-1.2-.8-.4-1.7-.6-2.5-.7h-5.6c-.8-.2-1.2-1.3-.8-2.1,1-2.1,2.9-3.9,3.2-6.4,0-.8,1.1-1.3,0-2.3s-.7-1.5-1.7-1.8c-1.6-.6-1.5-.7-4.8-.7s-.7-.3-.7-.5c0-.3.2-.8.3-.8,3.4,0,5.3-3.6,8.7-3.8,1.9-2.5,4.1-.5,6.2-.3,0,0,.3.7.2.9-.3.4-.8.8-1.3,1.1-.8.5-1.8.8-2.5,1.5-.6.6-1.1,1.4-1.5,2.2-.2.4-.4,1.1-.2,1.2.8.6,1.6,1.2,2.6,1.4,1.2.3,2.4-.2,3.6.7.4.3,1.5,0,2.3-.3.9-.3,1.8-.7,2.7-1,.3,0,.6-.3.7-.5.5-.8,1-1.7,1.3-2.6.9-1.2.2-4.2-1-4.8h.1Z"/>
    <path class="st0" d="M90.7,17.1c.6.4,1.7.3,2.6.2.7-.1,1.3-2.4,1.2-3.3v-1.2c.5.1,1,.2,1.4.5.8.4,1,1.6,2.2,1.5.8,0,1.6.1,2.4.2-.7.6-1.4,1.3-2.1,1.9-.5.5-1,1-1.6,1.3-1.6,1-3.2,2-4.8,2.9-.3.2-1.6.7-2.3,1.1h.2c.8-.2,1.4-.3,2.1-.5.3-.1,5-1.7.8.4-.2.1-.4.2-.6.3-.4.2-1.1.9-3.3,2.2,0,.1-4.9,2.9-4.9,2.9.2.1,5.2-2.2,5.4-2.3,1.2-.6,1.7-1.2,3.4-1.9,1.2-.4,1.8-1,2.8-.9.7,0,1-.2,1.8-.2,1.1-.3,1.2-.6,1.8-.7.2-.2.5-.3.7-.5.5-.3,1-.8,2.3-1.7.2-.2.6-.5.5-.6.4-.5.6-.3.6-.3,0,.1-.2.3-.3.4,0-.1-1.2,1.2-1.4,1.2-.2.5,0,.4-.3.9,3,0,5.6-1.1,7.8-3.2.6-.6,1.2-1.1,1.7-1.7,3.8-4.4,3.2-9.7-.9-13.4-.6-.5-3.5-1.4-4-1.3-2.3.5-6.7,3.6-8.2,5.8-2,3-4.1,3.7-7.4,2.6-1.2-.4-1.8-.1-1.8.9v2.8c0,1.7,1.1,2.9,2.3,3.7h0ZM100.2,8.3c1-1.2,1.6-2.8,3.7-2.8s2.3.6,2.2,2.7c-.3.5-.7,1.5-1.3,2.4-.4.7-1.1,1.2-1.7,1.7-.5.5-1.1.9-1.7,1.4-.3-.7-.5-1.4-.9-2.1-.8-1-1.2-2.1-.3-3.3Z"/>
    <path class="st0" d="M76.4,8.9c0,1.9.5,3.5.8,5.3.5,3,1.9,5.4,4.3,7.3,1.9,1.4,3.9,1.1,4.8-.8,0-.3-.7-1.3-.6-1.4.6-.5.9-1.4.6-1.8-1-1.2-.5-2,.4-2.8.8-.7.2-1.2-.4-1.7-1.4-1.2-1.5-1.2-1.4-1.8,0-1,0-1.9.4-3,1.1-2.5-.3-5.2-2.4-7.1-1.3-1.2-2.7-1-4.1-1.1-.9,0-1.9-.1-2.8,0-1,0-1.6.6-1.7,1.7,0,1.6,0,3.1,1,4.5.6.8,1.2,1.8,1.1,2.7Z"/>
    <path class="st0" d="M79.8,28.2c-.2.1-.4.1-.5.2-1.5,1.1-3.2,1.8-4.5,3.5-1.6,2.1-2.3,4.8-4.3,6.7-.3.3-.3,1-.3,1-.2,2.5,1.1,3.9,1.9,5.4.2.3.7.5,1.2.5,1.9.2,3.3-.7,3.9-2.7.4-1.4.5-2.8.8-4.3,0-.6.8-1.5.6-1.8-1-1.3-.5-2.3,0-3.7.5-1.3,0-3,1.4-4,0,0,0-.5-.2-.8Z"/>
    <path class="st0" d="M96.7,23.7c0,.2-.7.7-.8,1,.3,0,1.3-.1,1.4-.3.6-.6,1.1-1.3,1.7-2-.5,0-.5.2-1,.2-.3.4-1,.6-1.3,1.1Z"/>
    <path class="st0" d="M78.6,85.9l.2.2c.2,0,.3,0,.5-.2,0,0-.2-.2-.3-.2,0,0-.2.2-.4.2Z"/>
    <path class="st0" d="M105.7,35.7s.3-.2.4-.3v-.3c-.2,0-.4,0-.5.2,0,0,0,.2,0,.4h0Z"/>
    <path class="st0" d="M95,25.1c.2,0,.3-.1.5-.2,0-.1-.2-.2-.3-.2,0,.1-2.7,1.4-2.9,1.5.2,0,2.7-1.1,2.7-1.1Z"/>
    <path class="st0" d="M101.2,20.4c-.2,0-2.4,1.8-2.6,1.8,0,.2.7-.3.7,0,0,0,.5-.2.9-.5.4,0,.9.1.9-.7h-.2c.2-.2.3-.4.3-.6Z"/>
    <path class="st0" d="M78,87.5s0,.2.2.2c0-.2.2-.3.3-.5,0,0-.2-.2-.3-.2,0,0,0,.3-.2.5Z"/>
    <polygon class="st0" points="89.6 22.2 89.1 22.2 88.1 22.7 89.1 22.7 89.6 22.2"/>
    <polygon class="st0" points="88.2 22.8 87.8 22.8 87.5 23 87.8 23 88.2 22.8"/>
  </g>
</svg>